<svg width="90" height="90" fill="none" xmlns="http://www.w3.org/2000/svg"><path d="M3 3h84v84H3V3z" fill="url(#paint0_radial)"/><path d="M3.748 3.845h82.486v82.31H3.749V3.845zM0 90h90V0H0v90zm63.67-46.617c1.91 0 2.596 0 2.776-.074 0-.278.072-.462.072-.647 0-2.07-.973-5.915-4.866-5.915-3.604 0-5.136 3.234-5.515 6.654h7.533v-.018zm-7.605 5.268c.072 5.194 2.47 8.687 8.182 8.687 2.217 0 4.127-.314 6.11-1.183.27-.11.45-.074.45.277v4.806c0 .389-.108.574-.379.777-1.982.998-4.469 1.46-7.532 1.46-9.894 0-13.607-7.505-13.607-15.841 0-9.076 4.578-16.506 12.633-16.506 8.182 0 11.03 7.042 11.03 12.772 0 1.849-.109 3.346-.307 4.085-.072.314-.18.425-.486.5-.757.11-2.956.277-6.254.277h-9.822v-.111h-.018zm-20.112-3.919c-1.045-4.27-3.604-13.567-4.541-18.078h-.072c-.793 4.492-2.848 12.108-4.38 18.078h8.993zm-10.525 6.23l-2.955 11.496c-.072.315-.18.426-.559.426h-5.532c-.379 0-.45-.111-.379-.574l10.651-38.188c.18-.684.306-1.238.378-3.16 0-.278.109-.389.307-.389h7.875c.27 0 .379.074.45.388l11.913 41.424c.072.314 0 .499-.306.499h-6.182c-.306 0-.486-.111-.558-.389l-3.082-11.534h-12.02z" fill="#D8A1FF"/><defs><radialGradient id="paint0_radial" cx="0" cy="0" r="1" gradientUnits="userSpaceOnUse" gradientTransform="matrix(63.8427 0 0 63.5326 30.69 21.833)"><stop stop-color="#442F55" stop-opacity=".98"/><stop offset="1" stop-color="#12002C"/></radialGradient></defs></svg>