<svg width="90" height="90" fill="none" xmlns="http://www.w3.org/2000/svg"><path d="M3 3h84v84H3V3z" fill="url(#paint0_radial)"/><path d="M3.748 3.845h82.486v82.31H3.749V3.845zM0 90h90V0H0v90zm58.949-57.911c0-.314.108-.462.45-.462h5.893c.307 0 .45.11.45.462v30.35c0 .315-.071.463-.45.463h-5.82c-.38 0-.487-.185-.487-.499V32.089h-.036zm-.415-8.743c0-2.459 1.694-3.919 3.82-3.919 2.29 0 3.821 1.571 3.821 3.919 0 2.532-1.603 3.918-3.892 3.918-2.163.019-3.749-1.367-3.749-3.918zM41.666 44.732c-1.045-4.27-3.532-13.567-4.47-18.078h-.072c-.792 4.492-2.775 12.108-4.343 18.078h8.885zm-10.416 6.23l-2.956 11.533c-.072.315-.18.389-.559.389h-5.514c-.379 0-.45-.111-.379-.574l10.651-38.225c.18-.684.306-1.312.378-3.198 0-.277.109-.388.307-.388h7.875c.27 0 .379.074.45.388l11.931 41.498c.072.314 0 .499-.306.499H46.91c-.306 0-.486-.074-.558-.352l-3.082-11.57H31.25z" fill="#FF7F18"/><defs><radialGradient id="paint0_radial" cx="0" cy="0" r="1" gradientUnits="userSpaceOnUse" gradientTransform="matrix(63.8427 0 0 63.5326 30.693 21.85)"><stop stop-color="#423325" stop-opacity=".98"/><stop offset="1" stop-color="#1C0A00"/></radialGradient></defs></svg>