<svg width="40" height="41" fill="none" xmlns="http://www.w3.org/2000/svg"><g clip-path="url(#clip0)" fill="#070707" stroke="#070707" stroke-width=".5"><path d="M34.14.996H5.86A5.866 5.866 0 000 6.856v28.28a5.866 5.866 0 005.86 5.86h28.28a5.866 5.866 0 005.86-5.86V6.857a5.867 5.867 0 00-5.86-5.86zm3.516 34.14a3.52 3.52 0 01-3.515 3.516H5.859a3.52 3.52 0 01-3.515-3.515V6.855A3.52 3.52 0 015.859 3.34h28.282a3.52 3.52 0 013.515 3.515v28.282z"/><path d="M18.828 17.48a4.693 4.693 0 00-4.687-4.687H7.109v16.406h7.032a4.693 4.693 0 004.687-4.687 4.676 4.676 0 00-1.592-3.516 4.676 4.676 0 001.592-3.515zm-2.344 7.032a2.346 2.346 0 01-2.343 2.343H9.453v-4.687h4.688a2.346 2.346 0 012.343 2.344zm-7.03-4.688v-4.687h4.687a2.346 2.346 0 012.343 2.343 2.346 2.346 0 01-2.343 2.344H9.453zm17.577-2.344a5.866 5.866 0 00-5.86 5.86c0 3.23 2.63 5.86 5.86 5.86a5.88 5.88 0 005.075-2.93l-2.029-1.173a3.53 3.53 0 01-3.046 1.758 3.522 3.522 0 01-3.315-2.343h9.175V23.34a5.867 5.867 0 00-5.86-5.86zm-3.315 4.688a3.522 3.522 0 013.315-2.344c1.528 0 2.831.98 3.315 2.344h-6.63zm-1.372-9.375h9.375v2.344h-9.375v-2.344z"/></g><defs><clipPath id="clip0"><path fill="#fff" transform="translate(0 .996)" d="M0 0h40v40H0z"/></clipPath></defs></svg>