<svg width="40" height="41" fill="none" xmlns="http://www.w3.org/2000/svg"><path d="M30.974 8.12l.317-.39-.39-.316A17.271 17.271 0 0020 3.573c-1.45 0-2.855.198-4.186.524l-.741.18.462.608c1.422 1.871 3.465 4.697 5.912 9.122l.207.373.401-.145c4.627-1.68 7.4-4.25 8.92-6.116zM13.28 5.352l-.243-.314-.36.166A17.37 17.37 0 003.22 16.323l-.17.614.637.02c2.53.078 8.581-.04 15.286-1.795l.629-.165-.321-.566c-2.601-4.584-4.79-7.517-6.001-9.078zm19.898 4.259l-.384-.446-.378.45c-1.694 2.022-4.636 4.649-9.296 6.432l-.516.197.248.494a72.06 72.06 0 012.865 6.426l.144.374.396-.06a40.19 40.19 0 018.84-.322c.572.046.942.099 1.371.16l.282.039.51.07.055-.511c.07-.631.11-1.265.11-1.92 0-4.357-1.615-8.327-4.247-11.383zm-12.424 7.627l-.186-.364-.393.11c-7.892 2.192-14.844 2.125-17.01 2.04l-.48-.02-.038.48-.003.034a18.65 18.65 0 00-.076 1.486c0 5.238 2.318 9.91 5.97 13.106l.367.322.33-.36a50.309 50.309 0 013.637-3.609l.002-.002c2.809-2.531 6.425-5.212 10.365-6.382l.526-.156-.203-.509a73.674 73.674 0 00-2.808-6.176zm9.72 7.9h-.006a39.816 39.816 0 00-3.253.293l-.6.078.19.575c.945 2.844 1.727 5.856 2.231 8.989l.125.776.65-.442a17.341 17.341 0 006.871-9.386l.17-.574-.594-.066c-1.493-.164-3.385-.33-5.785-.243zm-5.799 1.183l-.154-.447-.455.13c-3.454.982-7.07 3.531-9.812 5.992-1.324 1.178-2.394 2.297-3.252 3.213l-.427.456.537.317a17.407 17.407 0 008.88 2.434c2.444 0 4.75-.505 6.857-1.395l.354-.149-.053-.38c-.495-3.575-1.37-6.981-2.475-10.172zM.5 20.995C.5 10.253 9.257 1.496 20 1.496s19.5 8.757 19.5 19.5c0 10.742-8.757 19.498-19.5 19.498S.5 31.738.5 20.995z" fill="#070707" stroke="#070707"/></svg>