<svg width="90" height="90" fill="none" xmlns="http://www.w3.org/2000/svg"><g clip-path="url(#clip0)"><path d="M30.072 89.991c8.038 0 14.558-6.64 14.558-14.826V60.34H30.072c-8.039 0-14.559 6.64-14.559 14.825 0 8.186 6.52 14.826 14.559 14.826z" fill="#0ACF83"/><path d="M15.513 45.496c0-8.186 6.52-14.826 14.559-14.826H44.63v29.67H30.072c-8.039-.019-14.559-6.658-14.559-14.844z" fill="#A259FF"/><path d="M15.513 15.826C15.513 7.64 22.033 1 30.072 1H44.63v29.67H30.072c-8.039 0-14.559-6.658-14.559-14.844z" fill="#F24E1E"/><path d="M44.648 1h14.559c8.039 0 14.559 6.64 14.559 14.826S67.246 30.65 59.207 30.65H44.648V1z" fill="#FF7262"/><path d="M73.766 45.496c0 8.186-6.52 14.825-14.559 14.825s-14.559-6.64-14.559-14.825c0-8.186 6.52-14.826 14.559-14.826s14.559 6.64 14.559 14.826z" fill="#1ABCFE"/></g><defs><clipPath id="clip0"><path fill="#fff" transform="translate(15.513 1)" d="M0 0h58.252v88.991H0z"/></clipPath></defs></svg>