<svg width="40" height="41" fill="none" xmlns="http://www.w3.org/2000/svg"><path d="M11.615 1.506h.5v-.01h16.28c6.117 0 11.105 4.995 11.105 11.112v16.774c0 6.117-4.988 11.112-11.096 11.112H11.615C5.496 40.494.5 35.507.5 29.401V12.618C.5 6.502 5.497 1.506 11.615 1.506zm-9.038 11.12v16.785a9.002 9.002 0 009.038 9.017h16.789a9.002 9.002 0 009.02-9.036V12.618a9.004 9.004 0 00-9.03-9.036H11.615a9.02 9.02 0 00-9.038 9.044zm28.702-3.93c0-.58.459-1.038 1.038-1.038.58 0 1.039.459 1.039 1.038a1.03 1.03 0 01-1.039 1.038 1.03 1.03 0 01-1.038-1.038zM9.74 21c0-5.645 4.623-10.266 10.27-10.266 5.647 0 10.269 4.62 10.269 10.266 0 5.645-4.622 10.266-10.27 10.266C14.364 31.266 9.74 26.645 9.74 21zm18.462 0a8.165 8.165 0 00-8.192-8.19A8.165 8.165 0 0011.817 21a8.165 8.165 0 008.193 8.19A8.165 8.165 0 0028.202 21z" fill="#070707" stroke="#070707"/></svg>