<svg width="42" height="42" fill="none" xmlns="http://www.w3.org/2000/svg"><path d="M35.164.996h-28.3A5.872 5.872 0 001 6.864v28.323a5.872 5.872 0 005.863 5.868h28.301a5.872 5.872 0 005.864-5.868V6.864A5.872 5.872 0 0035.164.996zm3.518 34.191a3.523 3.523 0 01-3.518 3.521h-28.3a3.524 3.524 0 01-3.519-3.52V6.863a3.523 3.523 0 013.518-3.52h28.301a3.523 3.523 0 013.518 3.52v28.323z" fill="#070707" stroke="#070707" stroke-width=".5"/><mask id="a" fill="#fff"><path d="M32.02 30.032h-4.296V22.83c0-.496-.037-.987-.161-1.472-.514-1.998-2.732-1.882-3.614-.934-.444.476-.734 1.014-.746 1.678-.002.159-.012.317-.012.475v7.454H18.9V16.666h4.288v1.793l.034.015.092-.125c.43-.599.923-1.13 1.58-1.489.732-.401 1.524-.535 2.347-.512.892.026 1.738.228 2.501.71.978.617 1.574 1.52 1.922 2.604.272.844.361 1.715.362 2.597.002 2.539.001 5.078.001 7.617 0 .05-.005.099-.008.156zm-15.739.008h-4.266V16.662h4.266V30.04zm-1.95-20.03c1.343-.002 2.294.956 2.298 2.317.004 1.347-.96 2.3-2.33 2.3-1.336.001-2.289-.957-2.291-2.305-.003-1.348.964-2.31 2.323-2.312z"/></mask><path d="M32.02 30.032h-4.296V22.83c0-.496-.037-.987-.161-1.472-.514-1.998-2.732-1.882-3.614-.934-.444.476-.734 1.014-.746 1.678-.002.159-.012.317-.012.475v7.454H18.9V16.666h4.288v1.793l.034.015.092-.125c.43-.599.923-1.13 1.58-1.489.732-.401 1.524-.535 2.347-.512.892.026 1.738.228 2.501.71.978.617 1.574 1.52 1.922 2.604.272.844.361 1.715.362 2.597.002 2.539.001 5.078.001 7.617 0 .05-.005.099-.008.156zm-15.739.008h-4.266V16.662h4.266V30.04zm-1.95-20.03c1.343-.002 2.294.956 2.298 2.317.004 1.347-.96 2.3-2.33 2.3-1.336.001-2.289-.957-2.291-2.305-.003-1.348.964-2.31 2.323-2.312z" fill="#070707"/><path d="M32.02 30.032v.03h.03v-.028l-.03-.002zm-4.296 0h-.03v.03h.03v-.03zm0-7.202h.03-.03zm-.161-1.472l.03-.007-.03.007zm-3.614-.934l.022.02-.022-.02zm-.746 1.678h-.03.03zm-.012.475h.03-.03zm0 7.454v.03h.03v-.03h-.03zm-4.29 0h-.03v.03h.03v-.03zm0-13.365v-.03h-.03v.03h.03zm4.288 0h.03v-.03h-.03v.03zm0 1.793h-.031v.02l.018.008.013-.028zm.034.015l-.012.028.022.01.014-.02-.024-.018zm.092-.125l.025.018-.025-.018zm1.58-1.489l.014.027-.014-.027zm2.347-.512l.001-.03v.03zm2.501.71l.016-.026-.016.025zm1.922 2.604l-.029.009.03-.01zm.362 2.597h.031-.03zm.001 7.617h-.03.03zm-15.747.164v.03h.03v-.03h-.03zm-4.266 0h-.03v.03h.03v-.03zm0-13.378v-.03h-.03v.03h.03zm4.266 0h.03v-.03h-.03v.03zm-1.95-6.652v.03-.03zm2.298 2.317h.03-.03zm-2.33 2.3v-.03.03zm-2.291-2.305h-.03.03zm20.012 17.68h-4.296v.06h4.296v-.06zm-4.266.03v-.198h-.06v.199h.06zm0-.198V22.83h-.06v7.004h.06zm0-7.004c0-.498-.036-.991-.161-1.48l-.06.016c.124.481.16.969.16 1.464h.062zm-.161-1.48c-.26-1.011-.954-1.49-1.695-1.594-.738-.104-1.523.165-1.972.647l.045.042c.434-.466 1.199-.73 1.919-.628.717.1 1.39.562 1.643 1.549l.06-.015zm-3.667-.947c-.447.48-.74 1.024-.753 1.699l.06.001c.013-.655.298-1.186.738-1.659l-.045-.041zm-.753 1.699c-.003.156-.012.317-.012.475h.06c0-.158.01-.314.013-.474l-.061-.001zm-.012.475v7.249h.06v-7.249h-.06zm0 7.249v.206h.06v-.206h-.06zm.03.174h-4.289v.062h4.288V30zm-4.259.031V16.665h-.06V30.03h.06zm-.03-13.334h4.287v-.062h-4.287v.061zm4.256-.031v1.793h.061v-1.794h-.061zm.018 1.82l.035.016.024-.056-.034-.015-.025.056zm.072.006l.092-.125-.05-.036-.092.125.05.036zm.092-.125c.428-.597.919-1.124 1.57-1.48l-.03-.054c-.662.362-1.159.897-1.59 1.498l.05.036zm1.57-1.48c.726-.398 1.512-.532 2.331-.508l.002-.061c-.827-.024-1.625.11-2.363.515l.03.054zm2.331-.508c.888.026 1.729.226 2.486.704l.032-.051c-.768-.486-1.62-.688-2.516-.714l-.002.061zm2.486.704c.97.613 1.562 1.51 1.91 2.588l.058-.019c-.351-1.089-.95-1.998-1.936-2.62l-.032.051zm1.91 2.588c.27.84.359 1.708.36 2.588h.061c0-.884-.09-1.758-.363-2.607l-.059.019zm.36 2.588c.002 2.539 0 5.078 0 7.617h.062c0-2.539.001-5.078-.001-7.617h-.061zm0 7.617c0 .048-.004.096-.007.155l.06.003c.004-.056.009-.108.009-.158h-.062zm-15.716.133h-4.266v.061h4.266v-.061zm-4.235.03V16.662h-.061V30.04h.061zm-.03-13.346h4.264v-.062h-4.265v.062zm4.235-.03V30.04h.06V16.661h-.06zm-1.92-6.623c.664 0 1.23.236 1.63.64.4.402.635.974.638 1.647h.06c-.002-.688-.243-1.275-.655-1.691-.413-.416-.994-.658-1.673-.657v.061zm2.268 2.287c.002.666-.236 1.233-.641 1.633-.406.4-.981.636-1.659.637v.061c.692 0 1.284-.241 1.702-.654.418-.413.66-.996.659-1.677h-.061zm-2.3 2.27c-1.319 0-2.258-.944-2.26-2.275h-.062c.003 1.364.969 2.337 2.322 2.336v-.061zm-2.26-2.275c-.003-1.331.95-2.28 2.292-2.282v-.06c-1.376.001-2.356.977-2.354 2.342h.061z" fill="#070707" mask="url(#a)"/></svg>