<svg width="90" height="90" fill="none" xmlns="http://www.w3.org/2000/svg"><path d="M3 3h84v84H3V3z" fill="url(#paint0_radial)"/><path d="M3.751 3.847h82.501v82.31h-82.5V3.846zM0 90h90V0H0v90zm52.686-52.117c0-.462 0-1.577-.187-3.73 0-.306.075-.383.299-.498 2.286-.96 7.725-2.654 13.798-2.654.3 0 .45.077.45.384v5.538c0 .306-.111.384-.45.384-2.361-.114-5.85.192-7.164.768v24.27c0 .306-.111.461-.45.461H53.1c-.299 0-.45-.114-.45-.461V37.883h.036zM24.937 62.806c-.45 0-.561-.192-.561-.576V20.884c0-.307.111-.499.45-.499h5.925c.299 0 .375.115.375.462v35.616h15.45c.3 0 .415.114.34.461l-.937 5.461c-.075.307-.263.462-.561.462h-20.48v-.04z" fill="#AAD1EB"/><defs><radialGradient id="paint0_radial" cx="0" cy="0" r="1" gradientUnits="userSpaceOnUse" gradientTransform="matrix(63.8392 0 0 63.5409 30.666 21.826)"><stop stop-color="#39464D" stop-opacity=".98"/><stop offset="1" stop-color="#05151F"/></radialGradient></defs></svg>