<svg width="90" height="90" fill="none" xmlns="http://www.w3.org/2000/svg"><path d="M2.513 3h84v84h-84V3z" fill="url(#paint0_radial)"/><path d="M3.751 3.847h82.501v82.31h-82.5V3.846zM0 90h90V0H0v90zm54-51.999c0-.461 0-1.576-.187-3.729 0-.306.036-.384.299-.498 2.286-.96 7.65-2.655 13.723-2.655.299 0 .45.077.45.384v5.575c0 .307-.112.384-.414.384-2.362-.114-5.775.192-7.089.768v24.233c0 .306-.111.461-.45.461h-5.886c-.298 0-.45-.114-.45-.461L54 38zm-24.001 3.5c.864.078 1.537.078 3.038.078 4.389 0 8.514-1.577 8.514-7.691 0-4.885-2.927-7.348-7.949-7.348a66.44 66.44 0 00-3.6.115L30 41.5zm-6.635-20.425c0-.27.076-.462.374-.462 2.402-.114 5.926-.192 9.638-.192 10.386 0 14.925 5.845 14.925 13.348 0 9.77-6.901 13.96-15.375 13.96-1.426 0-1.912-.077-2.927-.077v14.77c0 .306-.112.46-.45.46h-5.775c-.298 0-.45-.114-.45-.46V21.075h.04z" fill="#E579FF"/><defs><radialGradient id="paint0_radial" cx="0" cy="0" r="1" gradientUnits="userSpaceOnUse" gradientTransform="matrix(63.8392 0 0 63.5409 30.18 21.826)"><stop stop-color="#4B2D4F" stop-opacity=".98"/><stop offset="1" stop-color="#180024"/></radialGradient></defs></svg>