<svg width="92" height="92" fill="none" xmlns="http://www.w3.org/2000/svg"><path d="M3.034 3.033h84.944v84.944H3.034V3.033z" fill="url(#paint0_radial)"/><path d="M3.794 3.89h83.442v83.23H3.794V3.89zM0 91.011h91.011V0H0v91.011zm61.373-53.66c-2.99 0-4.012 1.552-4.012 2.843 0 1.403.675 2.375 4.705 4.507 5.946 2.956 7.807 5.798 7.807 9.95 0 6.229-4.633 9.577-10.889 9.577-3.301 0-6.146-.692-7.77-1.665-.273-.112-.31-.318-.31-.617v-5.742c0-.393.183-.505.456-.318 2.39 1.59 5.125 2.3 7.624 2.3 2.991 0 4.25-1.29 4.25-3.03 0-1.402-.876-2.637-4.706-4.675-5.38-2.637-7.624-5.312-7.624-9.8 0-5.013 3.83-9.184 10.47-9.184 3.264 0 5.544.505 6.784 1.084.31.188.383.505.383.786v5.33c0 .319-.182.505-.565.393-1.678-1.085-4.14-1.74-6.603-1.74zm-32.61 4.62c.875.075 1.55.075 3.064.075 4.432 0 8.608-1.59 8.608-7.781 0-4.938-2.99-7.425-8.043-7.425-1.514 0-2.955.074-3.648.112l.018 15.019zm-6.767-20.649c0-.28.529-.468.839-.468 2.426-.112 6.037-.187 9.776-.187 10.505 0 14.61 5.91 14.61 13.448 0 9.876-6.986 14.121-15.559 14.121-1.44 0-1.933-.075-2.954-.075v14.926c0 .318-.11.467-.456.467h-5.8c-.31 0-.456-.112-.456-.467V21.322z" fill="#31C5F0"/><defs><radialGradient id="paint0_radial" cx="0" cy="0" r="1" gradientUnits="userSpaceOnUse" gradientTransform="matrix(64.5478 0 0 64.2494 31.018 22.09)"><stop stop-color="#34364E" stop-opacity=".98"/><stop offset="1" stop-color="#0C0824"/></radialGradient></defs></svg>