<svg width="90" height="90" fill="none" xmlns="http://www.w3.org/2000/svg"><g clip-path="url(#clip0)" fill-rule="evenodd" clip-rule="evenodd"><path d="M18.287 33.272l26.62 52.101L.163 33.271h18.123zm53.246 0l-26.62 52.101 44.743-52.102H71.533z" fill="#EA6C00"/><path d="M18.286 33.272h53.239l-26.62 52.101-26.619-52.102z" fill="#FDAD00"/><path d="M44.905 4.398L19.687 7.064l-1.4 26.21L44.904 4.397zm0 0l25.218 2.666 1.401 26.21L44.906 4.397z" fill="#FDD231"/><path d="M89.656 33.272L70.132 7.062l1.401 26.21h18.123zm-89.492 0l19.524-26.21-1.401 26.21H.164z" fill="#FDAD00"/><path d="M44.905 4.398L18.286 33.273h53.239L44.904 4.398z" fill="#FEEEB7"/></g><defs><clipPath id="clip0"><path fill="#fff" transform="translate(0 4)" d="M0 0h90v81.468H0z"/></clipPath></defs></svg>