<svg width="20" height="20" fill="none" xmlns="http://www.w3.org/2000/svg"><path fill="#fff" d="M0 0h20v20H0z"/><path d="M9.076.703a.96.96 0 011.848 0l1.695 5.455c.13.419.503.703.924.703h5.483c.942 0 1.333 1.26.572 1.84l-4.436 3.37c-.341.26-.484.719-.353 1.138l1.694 5.455c.29.937-.734 1.716-1.496 1.137l-4.436-3.371a.937.937 0 00-1.142 0L4.993 19.8c-.762.58-1.787-.2-1.496-1.137l1.694-5.455a1.044 1.044 0 00-.353-1.137L.403 8.7c-.762-.579-.37-1.84.57-1.84h5.484a.977.977 0 00.924-.702L9.076.703z" fill="#E5E5E5"/></svg>