<svg width="90" height="90" fill="none" xmlns="http://www.w3.org/2000/svg"><path d="M3 3h84v84H3V3z" fill="#2E001E"/><path d="M0 0v90h90V0H0zm3.751 3.847h82.501v82.31h-82.5V3.846z" fill="#FF2BC2"/><path d="M65.362 37.81c-.562-.27-1.275-.385-2.175-.385-4.727 0-7.877 3.73-7.877 9.925 0 7.078 3.226 9.925 7.427 9.925.9 0 1.876-.114 2.589-.424V37.809h.036zm-16.798 9.843c0-8.961 5.627-15.962 14.85-15.962.788 0 1.199 0 1.951.078V21.77a.38.38 0 01.375-.384h6.037c.299 0 .374.114.374.306v35.155c0 1.038 0 2.345.187 3.77 0 .27 0 .306-.226.424a21.86 21.86 0 01-9.602 2.23c-8.136-.003-13.946-5.154-13.946-15.618zm-12.787-6.229l10.501 20.884c.187.306.076.617-.227.617h-6.527c-.414 0-.6-.115-.788-.499a1667.275 1667.275 0 01-7.351-15.807h-.076c-2.25 5.155-4.723 10.77-7.124 15.848-.187.306-.375.424-.677.424h-6.22c-.375 0-.415-.306-.228-.539l10.275-20.27-9.936-20.153c-.227-.307 0-.576.263-.576h6.45c.375 0 .562.077.678.424 2.361 5.114 4.762 10.154 7.012 15.309h.076c2.174-5.077 4.576-10.191 6.862-15.231.187-.306.298-.498.676-.498h6.038c.298 0 .414.232.226.576l-9.903 19.491z" fill="#FF2BC2"/></svg>