<svg width="90" height="90" viewBox="0 0 90 90" fill="none" xmlns="http://www.w3.org/2000/svg">
<path d="M3 3H87V87H3V3Z" fill="url(#paint0_radial)"/>
<path d="M3.7485 3.84473H86.2335V86.1553H3.7485V3.84473ZM0 90H90V0H0V90ZM63.6704 43.3826C65.5807 43.3826 66.2655 43.3826 66.4457 43.3087C66.4457 43.0314 66.5178 42.8466 66.5178 42.6617C66.5178 40.5915 65.5447 36.7468 61.652 36.7468C58.0477 36.7468 56.5158 39.9815 56.1374 43.4011H63.6704V43.3826ZM56.0653 48.6507C56.1374 53.8447 58.5342 57.3383 64.2471 57.3383C66.4638 57.3383 68.3741 57.024 70.3564 56.1553C70.6268 56.0444 70.807 56.0813 70.807 56.4325V61.2384C70.807 61.6266 70.6988 61.8115 70.4285 62.0148C68.4461 63.0129 65.9592 63.475 62.8955 63.475C53.0016 63.475 49.2892 55.9704 49.2892 47.634C49.2892 38.5582 53.8666 31.1275 61.9223 31.1275C70.1041 31.1275 72.9515 38.1701 72.9515 43.9002C72.9515 45.7486 72.8434 47.2458 72.6452 47.9852C72.5731 48.2994 72.465 48.4104 72.1586 48.4843C71.4017 48.5952 69.203 48.7616 65.9051 48.7616H56.0833V48.6507H56.0653ZM35.9531 44.732C34.9079 40.4621 32.3488 31.1645 31.4117 26.6543H31.3396C30.5467 31.146 28.4922 38.7616 26.9604 44.732H35.9531ZM25.4285 50.9612L22.473 62.4584C22.4009 62.7726 22.2928 62.8836 21.9143 62.8836H16.3817C16.0032 62.8836 15.9311 62.7726 16.0032 62.3105L26.654 24.122C26.8342 23.4381 26.9604 22.8835 27.0324 20.9612C27.0324 20.6839 27.1406 20.573 27.3388 20.573H35.2143C35.4846 20.573 35.5927 20.6469 35.6648 20.9612L47.5771 62.3845C47.6492 62.6987 47.5771 62.8836 47.2707 62.8836H41.0893C40.7829 62.8836 40.6027 62.7726 40.5306 62.4954L37.4489 50.9612H25.4285Z" fill="#D8A1FF"/>
<defs>
<radialGradient id="paint0_radial" cx="0" cy="0" r="1" gradientUnits="userSpaceOnUse" gradientTransform="translate(30.6907 21.8327) scale(63.8427 63.5326)">
<stop stop-color="#442F55" stop-opacity="0.98"/>
<stop offset="1" stop-color="#12002C"/>
</radialGradient>
</defs>
</svg>
