<svg width="90" height="90" viewBox="0 0 90 90" fill="none" xmlns="http://www.w3.org/2000/svg">
<path d="M3 3H87V87H3V3Z" fill="url(#paint0_radial)"/>
<path d="M3.7485 3.84473H86.2335V86.1553H3.7485V3.84473ZM0 90H90V0H0V90ZM58.9487 32.0887C58.9487 31.7745 59.0569 31.6266 59.3993 31.6266H65.2924C65.5987 31.6266 65.7429 31.7375 65.7429 32.0887V62.4399C65.7429 62.7542 65.6708 62.902 65.2924 62.902H59.4714C59.0929 62.902 58.9848 62.7172 58.9848 62.403V32.0887H58.9487ZM58.5342 23.3457C58.5342 20.8872 60.2283 19.427 62.3548 19.427C64.6436 19.427 66.1754 20.9982 66.1754 23.3457C66.1754 25.878 64.5715 27.2643 62.2827 27.2643C60.1201 27.2828 58.5342 25.8965 58.5342 23.3457ZM41.666 44.732C40.6207 40.4621 38.1338 31.1645 37.1966 26.6543H37.1245C36.3316 31.146 34.3492 38.7616 32.7813 44.732H41.666ZM31.2495 50.9612L28.294 62.4954C28.2219 62.8096 28.1137 62.8836 27.7353 62.8836H22.2207C21.8422 62.8836 21.7701 62.7726 21.8422 62.3105L32.493 24.085C32.6732 23.4011 32.7994 22.7726 32.8714 20.8872C32.8714 20.61 32.9796 20.4991 33.1778 20.4991H41.0533C41.3236 20.4991 41.4317 20.573 41.5038 20.8872L53.4341 62.3845C53.5062 62.6987 53.4341 62.8836 53.1278 62.8836H46.9103C46.6039 62.8836 46.4237 62.8096 46.3516 62.5323L43.2699 50.9612H31.2495Z" fill="#FF7F18"/>
<defs>
<radialGradient id="paint0_radial" cx="0" cy="0" r="1" gradientUnits="userSpaceOnUse" gradientTransform="translate(30.6929 21.8493) scale(63.8427 63.5326)">
<stop stop-color="#423325" stop-opacity="0.98"/>
<stop offset="1" stop-color="#1C0A00"/>
</radialGradient>
</defs>
</svg>
