<svg width="40" height="41" viewBox="0 0 40 41" fill="none" xmlns="http://www.w3.org/2000/svg">
<g clip-path="url(#clip0)">
<path d="M34.1406 0.996094H5.85938C2.62848 0.996094 0 3.62457 0 6.85547V35.1367C0 38.3676 2.62848 40.9961 5.85938 40.9961H34.1406C37.3715 40.9961 40 38.3676 40 35.1367V6.85547C40 3.62457 37.3715 0.996094 34.1406 0.996094ZM37.6562 35.1367C37.6562 37.0752 36.0791 38.6523 34.1406 38.6523H5.85938C3.9209 38.6523 2.34375 37.0752 2.34375 35.1367V6.85547C2.34375 4.91699 3.9209 3.33984 5.85938 3.33984H34.1406C36.0791 3.33984 37.6562 4.91699 37.6562 6.85547V35.1367Z" fill="#070707" stroke="#070707" stroke-width="0.5"/>
<path d="M18.8281 17.4805C18.8281 14.8956 16.7255 12.793 14.1406 12.793H7.10938V29.1992H14.1406C16.7255 29.1992 18.8281 27.0966 18.8281 24.5117C18.8281 23.1128 18.2114 21.8558 17.236 20.9961C18.2114 20.1364 18.8281 18.8794 18.8281 17.4805ZM16.4844 24.5117C16.4844 25.8041 15.433 26.8555 14.1406 26.8555H9.45313V22.168H14.1406C15.433 22.168 16.4844 23.2193 16.4844 24.5117ZM9.45313 19.8242V15.1367H14.1406C15.433 15.1367 16.4844 16.188 16.4844 17.4805C16.4844 18.7729 15.433 19.8242 14.1406 19.8242H9.45313Z" fill="#070707" stroke="#070707" stroke-width="0.5"/>
<path d="M27.0312 17.4805C23.8004 17.4805 21.1719 20.1089 21.1719 23.3398C21.1719 26.5707 23.8004 29.1992 27.0312 29.1992C29.1165 29.1992 31.0611 28.0771 32.106 26.2704L30.0772 25.0967C29.4498 26.1816 28.2825 26.8555 27.0312 26.8555C25.5032 26.8555 24.2001 25.8759 23.7164 24.5117H32.8906V23.3398C32.8906 20.1089 30.2621 17.4805 27.0312 17.4805ZM23.7164 22.168C24.2001 20.8038 25.5032 19.8242 27.0312 19.8242C28.5593 19.8242 29.8624 20.8038 30.3461 22.168H23.7164Z" fill="#070707" stroke="#070707" stroke-width="0.5"/>
<path d="M22.3438 12.793H31.7188V15.1367H22.3438V12.793Z" fill="#070707" stroke="#070707" stroke-width="0.5"/>
</g>
<defs>
<clipPath id="clip0">
<rect width="40" height="40" fill="white" transform="translate(0 0.996094)"/>
</clipPath>
</defs>
</svg>
