<svg width="40" height="41" viewBox="0 0 40 41" fill="none" xmlns="http://www.w3.org/2000/svg">
<path d="M30.9743 8.11907L31.2912 7.72973L30.9006 7.41441C27.9205 5.00862 24.1373 3.57287 20 3.57287C18.5506 3.57287 17.1451 3.77139 15.814 4.09676L15.073 4.27787L15.5347 4.88506C16.957 6.75598 19.0002 9.5815 21.4471 14.0067L21.6537 14.3805L22.0552 14.2347C26.6822 12.5549 29.4556 9.98518 30.9743 8.11907ZM13.2795 5.35269L13.0359 5.03893L12.6752 5.20529C8.08123 7.32396 4.59636 11.373 3.22019 16.323L3.04947 16.937L3.68655 16.9566C6.21743 17.0345 12.2683 16.9179 18.9728 15.1618L19.602 14.997L19.281 14.4313C16.6795 9.84749 14.4917 6.91391 13.2795 5.35269ZM33.177 9.61175L32.7929 9.16563L32.4148 9.61682C30.721 11.6381 27.7789 14.265 23.1194 16.0476L22.6031 16.2451L22.8513 16.739C23.8551 18.7371 24.8289 20.8662 25.7162 23.1654L25.8604 23.5391L26.2565 23.4799C29.6266 22.9768 32.7419 22.9767 35.0951 23.1569C35.6679 23.2034 36.0377 23.2556 36.4673 23.3163C36.5577 23.329 36.6508 23.3422 36.749 23.3557L37.2584 23.426L37.3143 22.9148C37.3834 22.2838 37.4231 21.6502 37.4231 20.9951C37.4231 16.6383 35.8085 12.6685 33.177 9.61175ZM20.7531 17.2392L20.5675 16.8754L20.1739 16.9847C12.2818 19.1768 5.32954 19.1099 3.16395 19.0244L2.68337 19.0055L2.64576 19.4849L2.64311 19.5187C2.60572 19.9951 2.56731 20.4846 2.56731 21.0047C2.56731 26.2426 4.88522 30.9155 8.53607 34.1111L8.90423 34.4334L9.23439 34.0723C10.15 33.0709 11.378 31.7955 12.8712 30.464L12.8732 30.4622C15.6819 27.9307 19.2978 25.2501 23.2385 24.0801L23.7636 23.9242L23.5605 23.4154C22.6792 21.2075 21.7304 19.1551 20.7531 17.2392ZM30.4721 25.1394L30.4668 25.1397C29.4333 25.1884 28.333 25.2858 27.2142 25.4318L26.6133 25.5101L26.8043 26.0852C27.749 28.9287 28.5305 31.9408 29.0352 35.074L29.1603 35.8502L29.8102 35.4077C33.0667 33.1907 35.5323 29.8942 36.6813 26.0217L36.8514 25.4482L36.2568 25.3825C34.764 25.2177 32.8717 25.0517 30.4721 25.1394ZM24.6744 26.3215L24.5196 25.875L24.0651 26.0043C20.6108 26.987 16.9951 29.5362 14.2535 31.9966C12.9289 33.1751 11.8591 34.2938 11.0005 35.2103L10.5736 35.6659L11.1115 35.9829C13.713 37.516 16.7328 38.4174 19.9904 38.4174C22.4353 38.4174 24.7417 37.9124 26.8484 37.0222L27.2018 36.873L27.1491 36.493C26.6537 32.9184 25.7798 29.5117 24.6744 26.3215ZM0.5 20.9951C0.5 10.2526 9.25689 1.49609 20 1.49609C30.7431 1.49609 39.5 10.2526 39.5 20.9951C39.5 31.7376 30.7431 40.4941 20 40.4941C9.25689 40.4941 0.5 31.7376 0.5 20.9951Z" fill="#070707" stroke="#070707"/>
</svg>
