<svg width="90" height="90" viewBox="0 0 90 90" fill="none" xmlns="http://www.w3.org/2000/svg">
<g clip-path="url(#clip0)">
<path d="M30.0718 89.9913C38.1103 89.9913 44.6305 83.3515 44.6305 75.1655V60.3398H30.0718C22.0333 60.3398 15.5132 66.9796 15.5132 75.1655C15.5132 83.3515 22.0333 89.9913 30.0718 89.9913Z" fill="#0ACF83"/>
<path d="M15.5132 45.4956C15.5132 37.3097 22.0333 30.6699 30.0718 30.6699H44.6305V60.3395H30.0718C22.0333 60.3213 15.5132 53.6816 15.5132 45.4956Z" fill="#A259FF"/>
<path d="M15.5132 15.8257C15.5132 7.63973 22.0333 1 30.0718 1H44.6305V30.6696H30.0718C22.0333 30.6696 15.5132 24.0117 15.5132 15.8257Z" fill="#F24E1E"/>
<path d="M44.6483 1H59.207C67.2455 1 73.7656 7.63973 73.7656 15.8257C73.7656 24.0117 67.2455 30.6514 59.207 30.6514H44.6483V1Z" fill="#FF7262"/>
<path d="M73.7656 45.4956C73.7656 53.6816 67.2455 60.3213 59.207 60.3213C51.1684 60.3213 44.6483 53.6816 44.6483 45.4956C44.6483 37.3097 51.1684 30.6699 59.207 30.6699C67.2455 30.6699 73.7656 37.3097 73.7656 45.4956Z" fill="#1ABCFE"/>
</g>
<defs>
<clipPath id="clip0">
<rect width="58.2524" height="88.9906" fill="white" transform="translate(15.5132 1)"/>
</clipPath>
</defs>
</svg>
