<svg width="40" height="41" viewBox="0 0 40 41" fill="none" xmlns="http://www.w3.org/2000/svg">
<path d="M11.6154 1.5057H12.1154V1.49609H28.3942C34.5119 1.49609 39.5 6.49148 39.5 12.6081V29.3821C39.5 35.499 34.5117 40.4941 28.4038 40.4941H11.6154C5.49635 40.4941 0.5 35.507 0.5 29.4013V12.6177C0.5 6.50163 5.49716 1.5057 11.6154 1.5057ZM2.57692 12.6263V12.6273V29.411C2.57692 34.4078 6.59973 38.4277 11.6154 38.4277H28.4038C33.4017 38.4277 37.4231 34.4063 37.4231 29.3917V12.6177C37.4231 7.6028 33.4014 3.58174 28.3942 3.58174H11.6154C6.60769 3.58174 2.5871 7.60314 2.57692 12.6263ZM31.2788 8.69579C31.2788 8.11655 31.7375 7.65778 32.3173 7.65778C32.8971 7.65778 33.3558 8.11655 33.3558 8.69579C33.3558 9.27504 32.8971 9.73381 32.3173 9.73381C31.7375 9.73381 31.2788 9.27504 31.2788 8.69579ZM9.74039 20.9999C9.74039 15.3548 14.3625 10.7338 20.0096 10.7338C25.6567 10.7338 30.2788 15.3548 30.2788 20.9999C30.2788 26.645 25.6567 31.266 20.0096 31.266C14.3625 31.266 9.74039 26.645 9.74039 20.9999ZM28.2019 20.9999C28.2019 16.4557 24.5549 12.8098 20.0096 12.8098C15.4644 12.8098 11.8173 16.4557 11.8173 20.9999C11.8173 25.5442 15.4644 29.19 20.0096 29.19C24.5549 29.19 28.2019 25.5442 28.2019 20.9999Z" fill="#070707" stroke="#070707"/>
</svg>
