<svg width="90" height="90" viewBox="0 0 90 90" fill="none" xmlns="http://www.w3.org/2000/svg">
<path d="M3 3H87V87H3V3Z" fill="url(#paint0_radial)"/>
<path d="M3.7512 3.84738H86.2524V86.1563H3.7512V3.84738ZM0 90H90V0H0V90ZM52.686 37.8831C52.686 37.4215 52.686 36.3065 52.4988 34.1538C52.4988 33.8474 52.5744 33.7698 52.7976 33.6554C55.0836 32.6954 60.5232 31.0006 66.5964 31.0006C66.8952 31.0006 67.0464 31.0782 67.0464 31.3846V36.9231C67.0464 37.2295 66.9348 37.3071 66.5964 37.3071C64.2348 37.1926 60.7464 37.4991 59.4324 38.0751V62.3446C59.4324 62.6511 59.3208 62.8062 58.9824 62.8062H53.1C52.8012 62.8062 52.65 62.6917 52.65 62.3446V37.8831H52.686ZM24.9372 62.8062C24.4872 62.8062 24.3756 62.6142 24.3756 62.2302V20.8837C24.3756 20.5772 24.4872 20.3852 24.8256 20.3852H30.7512C31.05 20.3852 31.1256 20.4997 31.1256 20.8468V56.4628H46.5768C46.8756 56.4628 46.9908 56.5772 46.9152 56.9243L45.9792 62.3852C45.9036 62.6917 45.7164 62.8468 45.4176 62.8468H24.9372V62.8062Z" fill="#AAD1EB"/>
<defs>
<radialGradient id="paint0_radial" cx="0" cy="0" r="1" gradientUnits="userSpaceOnUse" gradientTransform="translate(30.6662 21.8261) scale(63.8392 63.5409)">
<stop stop-color="#39464D" stop-opacity="0.98"/>
<stop offset="1" stop-color="#05151F"/>
</radialGradient>
</defs>
</svg>
