<svg width="90" height="90" viewBox="0 0 90 90" fill="none" xmlns="http://www.w3.org/2000/svg">
<path d="M2.51318 3H86.5132V87H2.51318V3Z" fill="url(#paint0_radial)"/>
<path d="M3.7512 3.84738H86.2524V86.1563H3.7512V3.84738ZM0 90H90V0H0V90ZM54 38.0012C54 37.5397 54 36.4246 53.8128 34.272C53.8128 33.9655 53.8488 33.888 54.1116 33.7735C56.3976 32.8135 61.7616 31.1188 67.8348 31.1188C68.1336 31.1188 68.2848 31.1963 68.2848 31.5028V37.0782C68.2848 37.3846 68.1732 37.4622 67.8708 37.4622C65.5092 37.3477 62.0964 37.6542 60.7824 38.2302V62.4628C60.7824 62.7692 60.6708 62.9243 60.3324 62.9243H54.4464C54.1476 62.9243 53.9964 62.8098 53.9964 62.4628L54 38.0012ZM29.9988 41.5015C30.8628 41.5791 31.536 41.5791 33.0372 41.5791C37.4256 41.5791 41.5512 40.0025 41.5512 33.888C41.5512 29.0031 38.6244 26.5403 33.6024 26.5403C32.1012 26.5403 30.6792 26.6178 30.0024 26.6548L29.9988 41.5015ZM23.364 21.0757C23.364 20.8062 23.4396 20.6142 23.7384 20.6142C26.1396 20.4997 29.664 20.4222 33.3756 20.4222C43.7616 20.4222 48.3012 26.2671 48.3012 33.7698C48.3012 43.5397 41.4 47.7305 32.9256 47.7305C31.5 47.7305 31.014 47.6529 29.9988 47.6529V62.4222C29.9988 62.7286 29.8872 62.8837 29.5488 62.8837H23.7744C23.4756 62.8837 23.3244 62.7692 23.3244 62.4222V21.0757H23.364Z" fill="#E579FF"/>
<defs>
<radialGradient id="paint0_radial" cx="0" cy="0" r="1" gradientUnits="userSpaceOnUse" gradientTransform="translate(30.1794 21.8261) scale(63.8392 63.5409)">
<stop stop-color="#4B2D4F" stop-opacity="0.98"/>
<stop offset="1" stop-color="#180024"/>
</radialGradient>
</defs>
</svg>
