<svg width="92" height="92" viewBox="0 0 92 92" fill="none" xmlns="http://www.w3.org/2000/svg">
<path d="M3.03371 3.0332H87.9775V87.977H3.03371V3.0332Z" fill="url(#paint0_radial)"/>
<path d="M3.79365 3.89033H87.2358V87.1209H3.79365V3.89033ZM0 91.0112H91.0112V0H0V91.0112ZM61.3733 37.3509C58.3822 37.3509 57.3608 38.9033 57.3608 40.1938C57.3608 41.5966 58.0356 42.5692 62.0664 44.7014C68.0122 47.6565 69.8726 50.4995 69.8726 54.6516C69.8726 60.8799 65.2399 64.2278 58.984 64.2278C55.6828 64.2278 52.8376 63.5358 51.2143 62.5632C50.9408 62.451 50.9043 62.2453 50.9043 61.946V56.204C50.9043 55.8112 51.0867 55.699 51.3602 55.8861C53.7495 57.4759 56.4853 58.1866 58.984 58.1866C61.9752 58.1866 63.2337 56.896 63.2337 55.1566C63.2337 53.7539 62.3582 52.5194 58.5281 50.4807C53.1476 47.8436 50.9043 45.169 50.9043 40.6801C50.9043 35.6676 54.7344 31.4967 61.3733 31.4967C64.638 31.4967 66.9179 32.0017 68.1581 32.5815C68.4682 32.7685 68.5411 33.0865 68.5411 33.367V38.6975C68.5411 39.0155 68.3587 39.2025 67.9757 39.0903C66.2978 38.0055 63.8355 37.3509 61.3733 37.3509ZM28.7625 41.9707C29.6379 42.0455 30.3128 42.0455 31.8266 42.0455C36.2586 42.0455 40.4353 40.4557 40.4353 34.2648C40.4353 29.3271 37.4441 26.8395 32.392 26.8395C30.8782 26.8395 29.4373 26.9143 28.7442 26.9517L28.7625 41.9707ZM21.9959 21.322C21.9959 21.0414 22.5248 20.8544 22.8349 20.8544C25.2606 20.7422 28.8719 20.6674 32.6108 20.6674C43.1163 20.6674 47.2201 26.5777 47.2201 34.1152C47.2201 43.9906 40.2346 48.2363 31.6624 48.2363C30.2216 48.2363 29.7291 48.1615 28.7078 48.1615V63.0869C28.7078 63.4049 28.5983 63.5545 28.2518 63.5545H22.4519C22.1418 63.5545 21.9959 63.4423 21.9959 63.0869V21.322Z" fill="#31C5F0"/>
<defs>
<radialGradient id="paint0_radial" cx="0" cy="0" r="1" gradientUnits="userSpaceOnUse" gradientTransform="translate(31.0182 22.0904) scale(64.5478 64.2494)">
<stop stop-color="#34364E" stop-opacity="0.98"/>
<stop offset="1" stop-color="#0C0824"/>
</radialGradient>
</defs>
</svg>
