<svg width="90" height="90" viewBox="0 0 90 90" fill="none" xmlns="http://www.w3.org/2000/svg">
<g clip-path="url(#clip0)">
<path fill-rule="evenodd" clip-rule="evenodd" d="M18.287 33.2715L44.9062 85.3731L0.164185 33.2715H18.287Z" fill="#EA6C00"/>
<path fill-rule="evenodd" clip-rule="evenodd" d="M71.533 33.2715L44.9138 85.3731L89.6559 33.2715H71.533Z" fill="#EA6C00"/>
<path fill-rule="evenodd" clip-rule="evenodd" d="M18.2861 33.2715H71.5245L44.9053 85.3731L18.2861 33.2715Z" fill="#FDAD00"/>
<path fill-rule="evenodd" clip-rule="evenodd" d="M44.9053 4.39844L19.6871 7.06415L18.2861 33.2732L44.9053 4.39844Z" fill="#FDD231"/>
<path fill-rule="evenodd" clip-rule="evenodd" d="M44.9053 4.39844L70.1234 7.06415L71.5245 33.2732L44.9053 4.39844Z" fill="#FDD231"/>
<path fill-rule="evenodd" clip-rule="evenodd" d="M89.6559 33.2715L70.132 7.0625L71.533 33.2715H89.6559Z" fill="#FDAD00"/>
<path fill-rule="evenodd" clip-rule="evenodd" d="M0.164185 33.2715L19.6881 7.0625L18.287 33.2715H0.164185Z" fill="#FDAD00"/>
<path fill-rule="evenodd" clip-rule="evenodd" d="M44.9053 4.39844L18.2861 33.2732H71.5245L44.9053 4.39844Z" fill="#FEEEB7"/>
</g>
<defs>
<clipPath id="clip0">
<rect width="90" height="81.468" fill="white" transform="translate(0 4)"/>
</clipPath>
</defs>
</svg>
