<svg width="20" height="20" viewBox="0 0 20 20" fill="none" xmlns="http://www.w3.org/2000/svg">
<rect width="20" height="20" fill="white"/>
<path d="M9.07556 0.702661C9.36654 -0.234219 10.6335 -0.234221 10.9244 0.702658L12.6188 6.15806C12.7489 6.57704 13.1221 6.86072 13.5432 6.86072H19.0261C19.9677 6.86072 20.3592 8.12128 19.5975 8.7003L15.1617 12.0719C14.821 12.3309 14.6784 12.7899 14.8086 13.2089L16.5029 18.6642C16.7939 19.6011 15.7689 20.3802 15.0071 19.8012L10.5713 16.4296C10.2307 16.1706 9.76934 16.1706 9.42867 16.4296L4.99288 19.8012C4.2311 20.3802 3.20614 19.6011 3.49711 18.6643L5.19143 13.2089C5.32156 12.7899 5.179 12.3309 4.83833 12.0719L0.40254 8.7003C-0.359237 8.12128 0.0322635 6.86072 0.973871 6.86072H6.45681C6.87791 6.86072 7.25112 6.57704 7.38124 6.15806L9.07556 0.702661Z" fill="#E5E5E5"/>
</svg>
