<svg width="90" height="90" viewBox="0 0 90 90" fill="none" xmlns="http://www.w3.org/2000/svg">
<path d="M2.99997 3H87V87H2.99997V3Z" fill="#2E001E"/>
<path d="M0 0V90H90V0H0ZM3.7512 3.84738H86.2524V86.1563H3.7512V3.84738Z" fill="#FF2BC2"/>
<path d="M65.3616 37.8094C64.8 37.5399 64.0872 37.4254 63.1872 37.4254C58.4604 37.4254 55.3104 41.1547 55.3104 47.3503C55.3104 54.4285 58.536 57.2753 62.7372 57.2753C63.6372 57.2753 64.6128 57.1608 65.3256 56.8507V37.8094H65.3616ZM48.564 47.6531C48.564 38.6919 54.1908 31.6913 63.414 31.6913C64.2024 31.6913 64.6128 31.6913 65.3652 31.7688V21.77C65.3652 21.5411 65.5524 21.386 65.7396 21.386H71.7768C72.0756 21.386 72.1512 21.5005 72.1512 21.6925V56.847C72.1512 57.8845 72.1512 59.1916 72.3384 60.6168C72.3384 60.8863 72.3384 60.9233 72.1116 61.0414C68.9616 62.5811 65.6604 63.2716 62.5104 63.2716C54.3744 63.2679 48.564 58.1171 48.564 47.6531ZM35.7768 41.4242L46.278 62.3079C46.4652 62.6143 46.3536 62.9245 46.0512 62.9245H39.5244C39.1104 62.9245 38.9232 62.81 38.736 62.426C36.3348 57.3491 33.8976 52.0802 31.3848 46.6193H31.3092C29.0592 51.7737 26.586 57.3897 24.1848 62.4667C23.9976 62.7731 23.8104 62.8913 23.508 62.8913H17.2872C16.9128 62.8913 16.8732 62.5848 17.0604 62.3522L27.3348 42.0814L17.3988 21.9288C17.172 21.6223 17.3988 21.3528 17.6616 21.3528H24.1128C24.4872 21.3528 24.6744 21.4303 24.7896 21.7774C27.1512 26.8913 29.5524 31.9313 31.8024 37.0857H31.878C34.0524 32.0088 36.4536 26.895 38.7396 21.855C38.9268 21.5485 39.0384 21.3565 39.4164 21.3565H45.4536C45.7524 21.3565 45.8676 21.5891 45.6804 21.9325L35.7768 41.4242Z" fill="#FF2BC2"/>
</svg>
